<svg width="45" height="43" viewBox="0 0 45 43" fill="none" xmlns="http://www.w3.org/2000/svg">
<path d="M36.793 14.0972C36.815 14.411 36.815 14.7249 36.815 15.0416C36.815 24.6923 29.3715 35.8226 15.7606 35.8226V35.8168C11.7399 35.8226 7.80273 34.6858 4.41797 32.5425C5.00261 32.6119 5.59018 32.6466 6.17922 32.6481C9.51124 32.651 12.748 31.5475 15.3694 29.5155C12.2029 29.4562 9.42625 27.4185 8.45624 24.4436C9.56545 24.6547 10.7084 24.6113 11.7971 24.3177C8.34488 23.6293 5.86126 20.6356 5.86126 17.1589C5.86126 17.1271 5.86126 17.0967 5.86126 17.0663C6.88987 17.6318 8.04157 17.9456 9.21965 17.9803C5.96822 15.8356 4.96598 11.5663 6.92944 8.22836C10.6864 12.7912 16.2295 15.5651 22.1799 15.8587C21.5836 13.322 22.3983 10.6638 24.3207 8.88061C27.301 6.11541 31.9884 6.25714 34.79 9.19734C36.4472 8.87483 38.0356 8.27464 39.4891 7.42425C38.9367 9.1149 37.7806 10.551 36.2362 11.4636C37.703 11.2929 39.136 10.9053 40.4855 10.3138C39.4921 11.7832 38.2407 13.0631 36.793 14.0972Z" fill="#A7A7A7"/>
</svg>
