<svg width="44" height="43" viewBox="0 0 44 43" fill="none" xmlns="http://www.w3.org/2000/svg">
<path fillRule="evenodd" clipRule="evenodd" d="M21.8302 5.33984C17.4792 5.33984 16.9346 5.358 15.2258 5.43596C13.5203 5.51392 12.3551 5.78519 11.3362 6.18141C10.2683 6.58297 9.29962 7.21307 8.49864 8.029C7.68401 8.82906 7.05352 9.79703 6.65104 10.8655C6.25696 11.8844 5.98463 13.0506 5.90666 14.7562C5.82977 16.4639 5.81055 17.0075 5.81055 21.3595C5.81055 25.7114 5.8287 26.255 5.90666 27.9638C5.98463 29.6694 6.25589 30.8345 6.65211 31.8534C7.05367 32.9213 7.68377 33.89 8.4997 34.691C9.29978 35.5056 10.2677 36.1361 11.3362 36.5386C12.3551 36.9337 13.5203 37.205 15.2258 37.2829C16.9346 37.3609 17.4792 37.3791 21.8302 37.3791C26.1811 37.3791 26.7257 37.3609 28.4345 37.2829C30.1401 37.205 31.3052 36.9337 32.3241 36.5375C33.392 36.1359 34.3607 35.5058 35.1617 34.6899C35.9763 33.8898 36.6068 32.9219 37.0093 31.8534C37.4044 30.8345 37.6757 29.6694 37.7536 27.9638C37.8316 26.255 37.8498 25.7104 37.8498 21.3595C37.8498 17.0085 37.8316 16.4639 37.7536 14.7551C37.6757 13.0495 37.4044 11.8844 37.0082 10.8655C36.606 9.79657 35.9755 8.82819 35.1606 8.02793C34.3605 7.21331 33.3926 6.58281 32.3241 6.18034C31.3052 5.78626 30.139 5.51392 28.4334 5.43596C26.7257 5.35907 26.1821 5.33984 21.8302 5.33984ZM21.8302 8.22658C26.1074 8.22658 26.6147 8.2426 28.3042 8.31949C29.8656 8.39105 30.7136 8.65056 31.2785 8.87163C32.0261 9.16105 32.5601 9.50921 33.1208 10.0688C33.6815 10.6295 34.0286 11.1635 34.318 11.9111C34.538 12.476 34.7986 13.324 34.8701 14.8854C34.947 16.5749 34.963 17.0822 34.963 21.3595C34.963 25.6367 34.947 26.144 34.8701 27.8335C34.7986 29.3949 34.539 30.2429 34.318 30.8078C34.0616 31.5036 33.6525 32.1332 33.1208 32.6501C32.604 33.1819 31.9744 33.591 31.2785 33.8473C30.7136 34.0673 29.8656 34.3279 28.3042 34.3994C26.6147 34.4763 26.1085 34.4923 21.8302 34.4923C17.5519 34.4923 17.0456 34.4763 15.3561 34.3994C13.7947 34.3279 12.9467 34.0683 12.3818 33.8473C11.686 33.5909 11.0564 33.1818 10.5395 32.6501C10.0079 32.1331 9.59879 31.5036 9.34234 30.8078C9.12233 30.2429 8.86175 29.3949 8.79019 27.8335C8.7133 26.144 8.69728 25.6367 8.69728 21.3595C8.69728 17.0822 8.7133 16.5749 8.79019 14.8854C8.86175 13.324 9.12127 12.476 9.34234 11.9111C9.63176 11.1635 9.97992 10.6295 10.5395 10.0688C11.0564 9.53703 11.6859 9.12792 12.3818 8.87163C12.9467 8.65163 13.7947 8.39105 15.3561 8.31949C17.0456 8.2426 17.5529 8.22658 21.8302 8.22658V8.22658Z" fill="#A7A7A7"/>
<path fillRule="evenodd" clipRule="evenodd" d="M21.8298 26.7045C21.1278 26.7045 20.4328 26.5662 19.7843 26.2976C19.1357 26.029 18.5465 25.6353 18.0501 25.1389C17.5538 24.6426 17.1601 24.0533 16.8915 23.4048C16.6228 22.7563 16.4846 22.0612 16.4846 21.3593C16.4846 20.6573 16.6228 19.9623 16.8915 19.3138C17.1601 18.6652 17.5538 18.076 18.0501 17.5796C18.5465 17.0833 19.1357 16.6896 19.7843 16.4209C20.4328 16.1523 21.1278 16.0141 21.8298 16.0141C23.2474 16.0141 24.607 16.5772 25.6094 17.5796C26.6118 18.5821 27.175 19.9416 27.175 21.3593C27.175 22.7769 26.6118 24.1365 25.6094 25.1389C24.607 26.1413 23.2474 26.7045 21.8298 26.7045V26.7045ZM21.8298 13.1252C19.646 13.1252 17.5516 13.9927 16.0074 15.5369C14.4632 17.0811 13.5957 19.1755 13.5957 21.3593C13.5957 23.5431 14.4632 25.6375 16.0074 27.1816C17.5516 28.7258 19.646 29.5934 21.8298 29.5934C24.0136 29.5934 26.108 28.7258 27.6521 27.1816C29.1963 25.6375 30.0639 23.5431 30.0639 21.3593C30.0639 19.1755 29.1963 17.0811 27.6521 15.5369C26.108 13.9927 24.0136 13.1252 21.8298 13.1252V13.1252ZM32.4593 12.9757C32.4593 13.4919 32.2543 13.987 31.8892 14.352C31.5242 14.717 31.0292 14.9221 30.5129 14.9221C29.9967 14.9221 29.5017 14.717 29.1366 14.352C28.7716 13.987 28.5666 13.4919 28.5666 12.9757C28.5666 12.4595 28.7716 11.9644 29.1366 11.5994C29.5017 11.2344 29.9967 11.0293 30.5129 11.0293C31.0292 11.0293 31.5242 11.2344 31.8892 11.5994C32.2543 11.9644 32.4593 12.4595 32.4593 12.9757" fill="#A7A7A7"/>
</svg>
