<svg width="48" height="48" viewBox="0 0 48 48" fill="none" xmlns="http://www.w3.org/2000/svg">
<mask id="mask0_1_495" style="mask-type:alpha" maskUnits="userSpaceOnUse" x="2" y="2" width="44" height="44">
<path d="M14 18C14.9193 18 15.8295 17.8189 16.6788 17.4672C17.5281 17.1154 18.2997 16.5998 18.9497 15.9497C19.5998 15.2997 20.1154 14.5281 20.4672 13.6788C20.8189 12.8295 21 11.9193 21 11C21 10.0807 20.8189 9.17049 20.4672 8.32122C20.1154 7.47194 19.5998 6.70026 18.9497 6.05025C18.2997 5.40024 17.5281 4.88463 16.6788 4.53284C15.8295 4.18106 14.9193 4 14 4C12.1435 4 10.363 4.7375 9.05025 6.05025C7.7375 7.36301 7 9.14348 7 11C7 12.8565 7.7375 14.637 9.05025 15.9497C10.363 17.2625 12.1435 18 14 18ZM34 18C34.9193 18 35.8295 17.8189 36.6788 17.4672C37.5281 17.1154 38.2997 16.5998 38.9497 15.9497C39.5998 15.2997 40.1154 14.5281 40.4672 13.6788C40.8189 12.8295 41 11.9193 41 11C41 10.0807 40.8189 9.17049 40.4672 8.32122C40.1154 7.47194 39.5998 6.70026 38.9497 6.05025C38.2997 5.40024 37.5281 4.88463 36.6788 4.53284C35.8295 4.18106 34.9193 4 34 4C32.1435 4 30.363 4.7375 29.0503 6.05025C27.7375 7.36301 27 9.14348 27 11C27 12.8565 27.7375 14.637 29.0503 15.9497C30.363 17.2625 32.1435 18 34 18Z" fill="white" stroke="white" strokeWidth="4" strokeLinejoin="round"/>
<path d="M4 44V35C4 29.477 7.77 25 12.421 25H17.474C21.559 25 24 29.027 24 29.027" stroke="white" strokeWidth="4" strokeLinecap="round" strokeLinejoin="round"/>
<path d="M44 44V35C44 29.477 40.185 25 35.479 25H30.366C26.405 25 23.992 29.027 24 29.027M11 40H38" stroke="white" strokeWidth="4" strokeLinecap="round" strokeLinejoin="round"/>
<path d="M34.2957 36.2584L35.5357 37.5054L38.0157 40.0004L35.5357 42.5614L34.2957 43.8424M14.3307 36.2324L13.0707 37.4864L10.5527 39.9934L13.0707 42.5414L14.3307 43.8164" stroke="white" strokeWidth="4" strokeLinecap="round" strokeLinejoin="round"/>
</mask>
<g mask="url(#mask0_1_495)">
<path d="M0 0H48V48H0V0Z" fill="#ECECEC"/>
</g>
</svg>
