<svg width="35" height="22" viewBox="0 0 35 22" fill="none" xmlns="http://www.w3.org/2000/svg">
<path d="M29.5017 1.76513C27.2805 0.948127 24.8986 0.346197 22.4082 0.00144618C22.3628 -0.0052074 22.3175 0.0114203 22.2942 0.0446764C21.9878 0.481433 21.6485 1.05122 21.4109 1.49906C18.7323 1.1776 16.0674 1.1776 13.4437 1.49906C13.2061 1.04126 12.8544 0.481433 12.5467 0.0446764C12.5234 0.0125298 12.478 -0.00409781 12.4327 0.00144618C9.94364 0.345095 7.56174 0.947026 5.33917 1.76513C5.31993 1.77178 5.30343 1.78287 5.29249 1.79728C0.774522 7.20804 -0.463138 12.4858 0.144016 17.6982C0.146764 17.7236 0.164621 17.748 0.189347 17.7635C3.17017 19.5183 6.05761 20.5837 8.89143 21.2898C8.93678 21.3009 8.98484 21.2876 9.0137 21.2576C9.68404 20.5238 10.2816 19.7501 10.7939 18.9364C10.8242 18.8887 10.7953 18.8322 10.7335 18.8133C9.78569 18.5251 8.88318 18.1737 8.01503 17.7746C7.94636 17.7425 7.94087 17.6638 8.00404 17.6261C8.18673 17.5163 8.36947 17.4021 8.54391 17.2869C8.57547 17.2658 8.61945 17.2614 8.65656 17.2747C14.3599 19.3621 20.5345 19.3621 26.1706 17.2747C26.2077 17.2603 26.2517 17.2647 26.2846 17.2858C26.4591 17.401 26.6418 17.5163 26.8259 17.6261C26.889 17.6638 26.8849 17.7425 26.8162 17.7746C25.9481 18.1815 25.0456 18.5251 24.0964 18.8122C24.0346 18.8311 24.0071 18.8887 24.0373 18.9364C24.5607 19.7489 25.1582 20.5227 25.8162 21.2565C25.8437 21.2876 25.8931 21.3009 25.9385 21.2898C28.786 20.5837 31.6734 19.5183 34.6543 17.7635C34.6804 17.748 34.6969 17.7248 34.6996 17.6993C35.4263 11.6732 33.4825 6.43873 29.547 1.79838C29.5374 1.78287 29.521 1.77178 29.5017 1.76513ZM11.6456 14.5244C9.92853 14.5244 8.51368 13.2607 8.51368 11.7087C8.51368 10.1567 9.90109 8.89304 11.6456 8.89304C13.4039 8.89304 14.805 10.1678 14.7775 11.7087C14.7775 13.2607 13.3901 14.5244 11.6456 14.5244ZM23.2255 14.5244C21.5084 14.5244 20.0936 13.2607 20.0936 11.7087C20.0936 10.1567 21.4809 8.89304 23.2255 8.89304C24.9838 8.89304 26.3849 10.1678 26.3574 11.7087C26.3574 13.2607 24.9838 14.5244 23.2255 14.5244Z" fill="#A7A7A7"/>
</svg>
