<svg width="48" height="18" viewBox="0 0 48 18" fill="none" xmlns="http://www.w3.org/2000/svg">
<path d="M42 13.9241C42.0138 14.188 41.9717 14.4519 41.8765 14.6986C41.7813 14.9454 41.635 15.1694 41.4472 15.3563C41.2594 15.5432 41.0343 15.6888 40.7863 15.7835C40.5384 15.8783 40.2732 15.9201 40.008 15.9064H31.992C31.453 15.9721 30.9061 15.9147 30.3927 15.7387C29.8792 15.5626 29.4129 15.2726 29.0289 14.8905C28.6449 14.5084 28.3534 14.0442 28.1765 13.5333C27.9997 13.0224 27.942 12.4781 28.008 11.9417V7.9532C27.9942 7.68926 28.0363 7.42537 28.1315 7.17864C28.2267 6.93191 28.373 6.70784 28.5608 6.52095C28.7486 6.33406 28.9737 6.18852 29.2217 6.09376C29.4696 5.999 29.7348 5.95713 30 5.97087H40.008C40.2732 5.95713 40.5384 5.999 40.7863 6.09376C41.0343 6.18852 41.2594 6.33406 41.4472 6.52095C41.635 6.70784 41.7813 6.93191 41.8765 7.17864C41.9717 7.42537 42.0138 7.68926 42 7.9532V13.9241ZM19.992 11.9417C20.0628 12.4822 20.0078 13.0316 19.8314 13.5476C19.655 14.0636 19.3619 14.5324 18.9746 14.9178C18.5873 15.3032 18.1162 15.5949 17.5977 15.7705C17.0792 15.946 16.5271 16.0007 15.984 15.9303H7.992C7.72677 15.944 7.46159 15.9022 7.21366 15.8074C6.96573 15.7126 6.74056 15.5671 6.55276 15.3802C6.36496 15.1933 6.21871 14.9692 6.12349 14.7225C6.02826 14.4758 5.98619 14.2119 6 13.948V7.9532C5.98619 7.68926 6.02826 7.42537 6.12349 7.17864C6.21871 6.93191 6.36496 6.70784 6.55276 6.52095C6.74056 6.33406 6.96573 6.18852 7.21366 6.09376C7.46159 5.999 7.72677 5.95713 7.992 5.97087H18C18.2652 5.95713 18.5304 5.999 18.7783 6.09376C19.0263 6.18852 19.2514 6.33406 19.4392 6.52095C19.627 6.70784 19.7733 6.93191 19.8685 7.17864C19.9637 7.42537 20.0058 7.68926 19.992 7.9532V11.9417ZM0 0.477669V15.4765C0 15.6032 0.0505713 15.7247 0.140589 15.8143C0.230606 15.9038 0.352696 15.9542 0.48 15.9542H4.608C4.94454 16.5589 5.43868 17.0622 6.03843 17.4111C6.63818 17.76 7.32134 17.9415 8.016 17.9365H16.008C17.2484 18.031 18.4871 17.7332 19.5474 17.0856C20.6076 16.4379 21.4352 15.4736 21.912 14.3301C21.9422 14.2398 22.0002 14.1612 22.0777 14.1055C22.1552 14.0498 22.2484 14.0197 22.344 14.0196H25.68C25.7756 14.0197 25.8688 14.0498 25.9463 14.1055C26.0238 14.1612 26.0818 14.2398 26.112 14.3301C26.581 15.4825 27.4052 16.4571 28.4662 17.1138C29.5271 17.7704 30.77 18.0752 32.016 17.9843H40.008C41.328 17.9843 42.648 17.9843 43.296 16.3124C43.3291 16.224 43.3878 16.1473 43.4647 16.092C43.5416 16.0368 43.6332 16.0054 43.728 16.0019H47.52C47.6473 16.0019 47.7694 15.9516 47.8594 15.862C47.9494 15.7725 48 15.651 48 15.5243V0.477669C48 0.350983 47.9494 0.229486 47.8594 0.139906C47.7694 0.0503254 47.6473 0 47.52 0H0.48C0.352696 0 0.230606 0.0503254 0.140589 0.139906C0.0505713 0.229486 0 0.350983 0 0.477669H0Z" fill="#ECECEC"/>
</svg>
